<?xml version="1.0" encoding="UTF-8"?>
<svg version="1.1" xmlns="http://www.w3.org/2000/svg" viewBox="0 0 512 512" width="512" height="512">
    <path d="M0 0 C4.70900632 3.95984623 8.87607386 8.81667709 10 15 C10.08059997 16.9517327 10.10762243 18.90600418 10.09765625 20.859375 C10.09443359 21.97441406 10.09121094 23.08945313 10.08789062 24.23828125 C10.07951172 25.39714844 10.07113281 26.55601563 10.0625 27.75 C10.05798828 28.92433594 10.05347656 30.09867188 10.04882812 31.30859375 C10.03705094 34.20578072 10.02060326 37.10286454 10 40 C11.01710808 39.99446924 11.01710808 39.99446924 12.05476379 39.98882675 C28.5726879 39.90039374 45.09053678 39.83425063 61.60864258 39.79275131 C69.59676631 39.77214783 77.58473177 39.74406981 85.57275391 39.69824219 C92.53714005 39.65830634 99.50141154 39.63255109 106.465909 39.62364602 C110.15178437 39.61844262 113.8373318 39.60625956 117.52310181 39.57707977 C121.64315179 39.54472803 125.76263583 39.5440449 129.8828125 39.54589844 C131.09769852 39.53151733 132.31258453 39.51713623 133.56428528 39.50231934 C141.41428045 39.54051525 146.90745849 40.4684053 153.0234375 45.74609375 C153.46945312 46.30425781 153.91546875 46.86242187 154.375 47.4375 C155.06722656 48.27087891 155.06722656 48.27087891 155.7734375 49.12109375 C159.47546013 54.7920265 159.84719256 60.40778293 159 67 C156.74272262 74.12453171 153.43583309 78.30535508 147 82 C144.16037579 82.9465414 142.29593471 83.14994224 139.3449707 83.20532227 C137.93384758 83.2352401 137.93384758 83.2352401 136.49421692 83.26576233 C135.48163315 83.28247482 134.46904938 83.29918732 133.42578125 83.31640625 C132.38681198 83.33718735 131.34784271 83.35796844 130.27738953 83.37937927 C126.95582747 83.44480656 123.63418584 83.50372821 120.3125 83.5625 C118.0618407 83.60569169 115.81118948 83.64930619 113.56054688 83.69335938 C108.0404489 83.80048098 102.52027163 83.90226016 97 84 C96.77764175 84.66140488 96.55528351 85.32280975 96.32618713 86.0042572 C91.5077593 100.31460729 86.20930412 114.23530053 80 128 C79.44820068 129.24716797 79.44820068 129.24716797 78.88525391 130.51953125 C69.05679931 152.64538264 56.53143039 173.64234137 42 193 C41.57025879 193.5784668 41.14051758 194.15693359 40.69775391 194.75292969 C35.59404517 201.60620153 30.25351989 208.21269075 24.57788086 214.60058594 C21.95400532 217.61280856 20.37942129 220.27556251 19 224 C19.8544445 224.834459 19.8544445 224.834459 20.72615051 225.68577576 C26.11180092 230.95082109 31.48256213 236.23042093 36.83752918 241.52665615 C39.59060039 244.24851667 42.34892455 246.96455639 45.12036133 249.66772461 C47.7986096 252.28041333 50.46159974 254.90781665 53.11499596 257.5457325 C54.12596423 258.54567982 55.14216875 259.54036373 56.16379738 260.52941704 C62.86897368 267.02931357 67.49007983 272.30613887 68.21484375 281.8203125 C67.36107188 288.91503648 65.54361583 293.98464216 60 298.8125 C55.20456629 302.30917041 52.26603986 303.32584861 46.25 303.4375 C45.07953125 303.47746094 43.9090625 303.51742188 42.703125 303.55859375 C33.49127441 302.16904245 27.28513809 294.68847084 21.03125 288.32421875 C20.11033569 287.3990596 19.18942139 286.47390045 18.24060059 285.52070618 C15.81402121 283.08277243 13.39659499 280.63596209 10.9810791 278.18707275 C8.50596062 275.68104844 6.022132 273.18368878 3.5390625 270.68554688 C-1.31576305 265.79872367 -6.16095655 260.90245021 -11 256 C-14.25286454 257.42582329 -16.39317178 259.15472454 -18.88189697 261.67503357 C-19.64152237 262.43913544 -20.40114777 263.2032373 -21.18379211 263.99049377 C-22.00775986 264.82950729 -22.8317276 265.66852081 -23.68066406 266.53295898 C-24.55597275 267.41600708 -25.43128143 268.29905518 -26.33311462 269.2088623 C-28.23463507 271.12804596 -30.13428343 273.04890304 -32.03122711 274.97259331 C-35.03459375 278.0173879 -38.04723918 281.05288546 -41.06170654 284.08668518 C-49.63177383 292.71427703 -58.19181508 301.35172983 -66.73681641 310.00415039 C-71.45789194 314.78441372 -76.18796497 319.555585 -80.92797446 324.31707627 C-83.92324977 327.32694644 -86.90713419 330.34752882 -89.88297987 333.37660396 C-92.1790583 335.70708451 -94.49167285 338.02106197 -96.80175781 340.33764648 C-98.02556404 341.59313042 -98.02556404 341.59313042 -99.27409363 342.87397766 C-104.59771707 348.17009576 -108.91685706 351.17961934 -116.46875 352.3984375 C-122.78259062 352.32558549 -128.21478121 351.58235837 -132.984375 347.16015625 C-137.9754367 341.62255267 -140.29646333 337.84938762 -140.4375 330.25 C-140.49744141 328.49429688 -140.49744141 328.49429688 -140.55859375 326.703125 C-139.1152809 317.13486921 -131.09647373 310.68217116 -124.51171875 304.18359375 C-123.48369206 303.15863317 -122.45626256 302.1330733 -121.42939758 301.10694885 C-119.28469758 298.96682749 -117.13521837 296.83167582 -114.98168945 294.70043945 C-112.24164003 291.98863378 -109.51030319 289.26826495 -106.78210735 286.54453945 C-104.15344561 283.92107114 -101.52014656 281.30227625 -98.88671875 278.68359375 C-98.39518499 278.19394072 -97.90365124 277.70428768 -97.39722252 277.19979668 C-92.37818819 272.20555782 -87.31865521 267.34010354 -81.94831848 262.72618103 C-78.1820096 259.3892877 -74.66987537 255.79135346 -71.125 252.22265625 C-70.31506592 251.41130722 -69.50513184 250.59995819 -68.6706543 249.76402283 C-66.11138985 247.19920861 -63.5556447 244.63092052 -61 242.0625 C-59.25413867 240.31161717 -57.50804713 238.56096387 -55.76171875 236.81054688 C-51.50514802 232.54301384 -47.25145284 228.27263134 -43 224 C-44.44051027 220.18619322 -45.82494787 217.85457693 -48.6875 214.9375 C-64.13025088 198.24936598 -76.59756031 178.60012036 -88 159 C-88.71736328 157.86304688 -88.71736328 157.86304688 -89.44921875 156.703125 C-92.75583877 151.08767206 -92.72069248 145.37812844 -92 139 C-90.26982116 133.50413782 -86.65079596 130.20675867 -82 127 C-76.30417178 124.38941206 -71.29591312 124.20830582 -65.375 126.25 C-58.17147566 129.98516077 -55.11660297 134.62787217 -51.1875 141.5 C-50.12047793 143.31887623 -49.05147365 145.13659111 -47.98046875 146.953125 C-47.46661621 147.82775391 -46.95276367 148.70238281 -46.42333984 149.60351562 C-37.64303235 164.38696303 -26.74661383 180.734219 -14.25390625 192.66796875 C-13 194 -13 194 -13 196 C-12.34 196 -11.68 196 -11 196 C-10.78085938 195.46761719 -10.56171875 194.93523437 -10.3359375 194.38671875 C-8.52450092 191.15049726 -6.08468006 188.56056976 -3.625 185.8125 C20.57767414 158.10468676 39.5888803 123.77474075 52.07958984 89.30033875 C52.61922867 87.81217164 52.61922867 87.81217164 53.16976929 86.29394054 C53.44374542 85.53694016 53.71772156 84.77993979 54 84 C52.86839951 83.99853344 51.73679901 83.99706688 50.57090759 83.99555588 C23.03720811 83.95896171 -4.49636973 83.89951311 -32.02996826 83.81609726 C-45.34502674 83.77628709 -58.65998599 83.74390463 -71.97509766 83.72900391 C-83.58046932 83.71599769 -95.18571067 83.68905917 -106.79100895 83.64538693 C-112.93599799 83.62274918 -119.08082616 83.60709072 -125.2258606 83.60811615 C-131.01086291 83.60886138 -136.7955093 83.59096525 -142.58041954 83.55883217 C-144.70239323 83.55032015 -146.82440679 83.54859205 -148.94639015 83.55419731 C-151.8473251 83.56083892 -154.74712819 83.54291218 -157.64794922 83.51898193 C-158.48454606 83.52674235 -159.3211429 83.53450277 -160.18309116 83.54249835 C-166.78255518 83.44635186 -171.99109023 81.59649164 -177.0234375 77.25390625 C-177.46945313 76.69574219 -177.91546875 76.13757813 -178.375 75.5625 C-178.83648437 75.00691406 -179.29796875 74.45132813 -179.7734375 73.87890625 C-183.48576087 68.19219434 -183.73312258 62.60738327 -183 56 C-181.23376312 49.82345906 -177.32662991 45.47725944 -172 42 C-168.30486918 40.26750225 -165.41839808 39.75180661 -161.34953308 39.75949097 C-160.22357727 39.75674164 -159.09762146 39.75399231 -157.93754578 39.75115967 C-156.71187393 39.75835022 -155.48620209 39.76554077 -154.22338867 39.77294922 C-152.27645615 39.77251114 -152.27645615 39.77251114 -150.29019165 39.77206421 C-146.73889245 39.77149116 -143.18772877 39.78323762 -139.63646102 39.79721212 C-135.92222391 39.80972752 -132.20798358 39.81089062 -128.49372864 39.81326294 C-121.46379573 39.81947533 -114.43392514 39.83588288 -107.40401965 39.85596192 C-99.39922802 39.87832842 -91.39443339 39.88931624 -83.38961828 39.89935279 C-66.92637572 39.92024933 -50.46319582 39.95542061 -34 40 C-34.02356567 38.92685547 -34.02356567 38.92685547 -34.04760742 37.83203125 C-34.11040747 34.55476961 -34.14913303 31.2776351 -34.1875 28 C-34.21263672 26.87464844 -34.23777344 25.74929687 -34.26367188 24.58984375 C-34.33290492 16.69727606 -33.95333177 10.51207021 -28.6875 4.25 C-19.76221519 -3.22233147 -10.66967034 -5.7363819 0 0 Z "
          fill="currentColor" fill-rule="evenodd" transform="translate(204,45)"/>
    <path d="M0 0 C8.91582979 7.26906272 12.39787091 17.01609268 16.26171875 27.52734375 C16.78739798 28.9372594 17.31385763 30.34688428 17.84103394 31.75624084 C19.2630669 35.56458611 20.67418288 39.37689329 22.0833931 43.18999863 C23.58151572 47.2375846 25.09006148 51.28128316 26.59741211 55.32543945 C29.72781492 63.72953133 32.84647793 72.137942 35.96203613 80.54754639 C37.69650555 85.22915039 39.4332229 89.90991721 41.17089844 94.59033203 C41.44246419 95.32182937 41.71402994 96.0533267 41.99382496 96.80699062 C43.34432172 100.44449939 44.69513116 104.08189186 46.04618835 107.7191925 C46.58216484 109.16231494 47.1181197 110.60544541 47.65405273 112.04858398 C48.05002167 113.11482545 48.05002167 113.11482545 48.45398998 114.20260715 C50.04796902 118.49635244 51.63802224 122.79152927 53.22515011 127.08781147 C58.80799001 142.19819338 64.45712189 157.27871597 70.25723839 172.30720329 C72.09422467 177.07241262 73.92078256 181.84163483 75.74820042 186.61052036 C77.48695234 191.14283159 79.24477469 195.66711835 81.01762676 200.18619156 C82.10868529 202.98038631 83.18163275 205.78129107 84.25007439 208.58420181 C84.97868628 210.47894523 85.7293291 212.36517196 86.48085022 214.25094604 C89.55035133 222.36770159 92.18568974 231.56224028 88.7472229 239.99208069 C85.90519917 244.98748422 82.23663126 248.36575069 76.96875 250.70703125 C70.13799376 252.31426801 65.41060126 251.67376737 59.0546875 249.015625 C51.8131585 244.05107161 48.97366453 236.93835621 46.0390625 228.94140625 C45.62582733 227.84862366 45.21259216 226.75584106 44.78683472 225.62994385 C43.92133684 223.33301959 43.06281668 221.03345519 42.2109375 218.73144531 C40.9033295 215.19914195 39.57470126 211.67531796 38.2421875 208.15234375 C37.40241761 205.91582537 36.56383375 203.67886123 35.7265625 201.44140625 C35.32978302 200.38516052 34.93300354 199.32891479 34.52420044 198.24066162 C34.1631723 197.26244446 33.80214417 196.28422729 33.43017578 195.27636719 C33.11074005 194.41589783 32.79130432 193.55542847 32.46218872 192.66888428 C31.78125 190.45703125 31.78125 190.45703125 31.78125 187.45703125 C-18.21375 187.95203125 -18.21375 187.95203125 -69.21875 188.45703125 C-75.21624726 204.87546872 -75.21624726 204.87546872 -81.18408203 221.3046875 C-81.94717844 223.37669416 -82.71127308 225.44833357 -83.4765625 227.51953125 C-83.85611084 228.57978516 -84.23565918 229.64003906 -84.62670898 230.73242188 C-87.25477844 237.79339945 -90.24403061 244.56135939 -96.4921875 249.11328125 C-103.67321635 251.9963709 -109.93145736 252.69402541 -117.26171875 249.62890625 C-122.23957115 246.64815631 -125.43032376 242.26384139 -127.71875 237.01953125 C-129.05308895 227.51236622 -125.67134965 219.43270151 -122.34765625 210.69140625 C-121.83708552 209.32574831 -121.32742058 207.95975144 -120.81858826 206.59344482 C-119.44005757 202.89982356 -118.04873322 199.21114182 -116.6550293 195.52322388 C-115.17586823 191.60230016 -113.70882715 187.67684447 -112.24023438 183.75195312 C-108.87709369 174.77121055 -105.49603694 165.79726983 -102.11154938 156.82455444 C-100.69286753 153.06249742 -99.27589716 149.29979619 -97.85888672 145.53710938 C-89.44149775 123.18896249 -89.44149775 123.18896249 -85.82203674 113.6166687 C-80.12440013 98.54734945 -74.46592502 83.46480216 -68.89162827 68.34936523 C-67.98716406 65.89705949 -67.08185084 63.44506876 -66.17630005 60.99316406 C-63.57442201 53.94666227 -60.97511034 46.89931271 -58.39331341 39.84542465 C-57.34146229 36.9760192 -56.2836424 34.1088394 -55.22437477 31.24216461 C-54.73735192 29.92002619 -54.25291402 28.59693201 -53.77136803 27.272789 C-49.07934687 14.37591996 -44.40859784 3.71794061 -32.21875 -3.54296875 C-21.59134428 -8.00647915 -9.35636539 -6.50662734 0 0 Z M-19.21875 53.45703125 C-22.4886909 62.12504734 -25.75782753 70.79336624 -29.02600193 79.46204853 C-30.54438175 83.48940877 -32.06301479 87.5166731 -33.58227539 91.54370117 C-37.46856623 101.84534391 -41.34908558 112.14913067 -45.21875 122.45703125 C-45.84653351 124.12835114 -45.84653351 124.12835114 -46.48699951 125.83343506 C-47.51489154 128.57497856 -48.53814637 131.31817853 -49.55859375 134.0625 C-49.98211876 135.19139397 -49.98211876 135.19139397 -50.41419983 136.34309387 C-51.76351763 139.80730959 -51.76351763 139.80730959 -52.21875 143.45703125 C-30.10875 143.45703125 -7.99875 143.45703125 14.78125 143.45703125 C9.47764817 128.2085239 9.47764817 128.2085239 3.94921875 113.046875 C3.63060379 112.19261932 3.31198883 111.33836365 2.98371887 110.45822144 C1.98054972 107.76964067 0.97467989 105.08208012 -0.03125 102.39453125 C-0.73264981 100.51595423 -1.43381912 98.63729113 -2.13476562 96.75854492 C-3.1807362 93.95511688 -4.22683639 91.15173823 -5.27371216 88.34864807 C-8.26930664 80.32741029 -11.2478557 72.29994521 -14.21875 64.26953125 C-14.63358643 63.14861084 -15.04842285 62.02769043 -15.47583008 60.87280273 C-16.39044915 58.40099426 -17.30479259 55.92908443 -18.21875 53.45703125 C-18.54875 53.45703125 -18.87875 53.45703125 -19.21875 53.45703125 Z "
          fill="currentColor" fill-rule="evenodd" transform="translate(392.21875,218.54296875)"/>
</svg>
